<?xml version="1.0" encoding="UTF-8"?>
<svg id="Layer_1" data-name="Layer 1" xmlns="http://www.w3.org/2000/svg" viewBox="0 0 800 335.92">
  <defs>
    <style>
      .cls-1 {
        fill: #f2a900;
      }

      .cls-2 {
        fill: #dc4093;
      }

      .cls-3 {
        fill: #dd335b;
      }

      .cls-4 {
        fill: #78be20;
      }

      .cls-5 {
        fill: #05c3de;
      }

      .cls-6 {
        fill: #fff;
      }

      .cls-7 {
        fill: #ec99c5;
      }

      .cls-8 {
        fill: #d58044;
      }
    </style>
  </defs>
  <g>
    <path class="cls-6" d="M158.59,268.16v-99.87h24.97c15.43,0,27.15,4.29,35.17,12.86,8.02,8.58,12.03,20.78,12.03,36.61s-3.98,28.32-11.95,37.15c-7.97,8.83-19.51,13.25-34.64,13.25h-25.58ZM171.23,257.81h11.42c11.67,0,20.42-3.53,26.26-10.58,5.84-7.05,8.75-16.87,8.75-29.46s-2.92-22.25-8.75-29c-5.84-6.75-14.59-10.12-26.26-10.12h-11.42v79.17Z"/>
    <path class="cls-6" d="M268.06,269.99c-6.19,0-11.34-1.85-15.45-5.56-4.11-3.7-6.17-8.85-6.17-15.45,0-8.12,3.63-14.34,10.89-18.65,7.26-4.31,18.75-7.33,34.48-9.06,0-3.15-.43-6.14-1.29-8.98-.86-2.84-2.39-5.15-4.57-6.93-2.18-1.77-5.3-2.66-9.36-2.66-4.26,0-8.27.81-12.03,2.44-3.76,1.62-7.11,3.45-10.05,5.48l-4.87-8.68c3.45-2.23,7.69-4.39,12.71-6.47,5.02-2.08,10.48-3.12,16.37-3.12,9.03,0,15.58,2.77,19.64,8.3,4.06,5.53,6.09,12.92,6.09,22.15v45.37h-10.35l-1.07-8.83h-.46c-3.45,2.84-7.23,5.33-11.34,7.46-4.11,2.13-8.5,3.2-13.17,3.2ZM271.71,259.94c3.55,0,6.9-.86,10.05-2.59,3.14-1.72,6.49-4.16,10.05-7.31v-20.55c-12.28,1.52-20.88,3.81-25.81,6.85-4.92,3.04-7.38,6.95-7.38,11.72,0,4.16,1.27,7.18,3.81,9.06,2.54,1.88,5.63,2.82,9.29,2.82Z"/>
    <path class="cls-6" d="M348.9,269.99c-7.92,0-13.42-2.28-16.52-6.85-3.1-4.57-4.64-10.51-4.64-17.81v-40.95h-10.96v-9.44l11.57-.76,1.52-20.71h10.51v20.71h19.94v10.2h-19.94v41.11c0,4.57.84,8.09,2.51,10.58,1.67,2.49,4.64,3.73,8.91,3.73,1.32,0,2.74-.23,4.26-.69,1.52-.46,2.89-.89,4.11-1.29l2.44,9.44c-2.03.71-4.24,1.34-6.62,1.9-2.39.56-4.75.84-7.08.84Z"/>
    <path class="cls-6" d="M390.92,269.99c-6.19,0-11.34-1.85-15.45-5.56-4.11-3.7-6.17-8.85-6.17-15.45,0-8.12,3.63-14.34,10.89-18.65,7.26-4.31,18.75-7.33,34.48-9.06,0-3.15-.43-6.14-1.29-8.98-.86-2.84-2.39-5.15-4.57-6.93-2.18-1.77-5.3-2.66-9.36-2.66-4.26,0-8.27.81-12.03,2.44-3.76,1.62-7.11,3.45-10.05,5.48l-4.87-8.68c3.45-2.23,7.69-4.39,12.71-6.47,5.02-2.08,10.48-3.12,16.37-3.12,9.03,0,15.58,2.77,19.64,8.3,4.06,5.53,6.09,12.92,6.09,22.15v45.37h-10.35l-1.07-8.83h-.46c-3.45,2.84-7.23,5.33-11.34,7.46-4.11,2.13-8.5,3.2-13.17,3.2ZM394.57,259.94c3.55,0,6.9-.86,10.05-2.59,3.14-1.72,6.49-4.16,10.05-7.31v-20.55c-12.28,1.52-20.88,3.81-25.81,6.85-4.92,3.04-7.38,6.95-7.38,11.72,0,4.16,1.27,7.18,3.81,9.06,2.54,1.88,5.63,2.82,9.29,2.82Z"/>
    <path class="cls-6" d="M479.53,269.99c-7,0-13.5-1.35-19.49-4.03-5.99-2.69-11.17-6.27-15.53-10.73l7.61-8.83c3.55,3.76,7.74,6.78,12.56,9.06,4.82,2.28,9.82,3.43,15,3.43,6.6,0,11.72-1.5,15.38-4.49,3.65-2.99,5.48-6.93,5.48-11.8,0-3.45-.74-6.19-2.21-8.22-1.47-2.03-3.45-3.75-5.94-5.18-2.49-1.42-5.3-2.84-8.45-4.26l-14.31-6.24c-3.15-1.32-6.27-3.04-9.36-5.18-3.1-2.13-5.69-4.87-7.76-8.22-2.08-3.35-3.12-7.46-3.12-12.33s1.34-9.62,4.03-13.63c2.69-4.01,6.42-7.16,11.19-9.44,4.77-2.28,10.15-3.43,16.14-3.43s11.52,1.14,16.59,3.43c5.07,2.28,9.39,5.25,12.94,8.91l-6.85,8.22c-3.04-2.94-6.42-5.25-10.12-6.93-3.71-1.68-7.89-2.51-12.56-2.51-5.58,0-10.07,1.32-13.47,3.96-3.4,2.64-5.1,6.19-5.1,10.66,0,3.15.84,5.76,2.51,7.84,1.67,2.08,3.78,3.78,6.32,5.1,2.54,1.32,5.12,2.54,7.76,3.65l14.16,6.09c3.86,1.62,7.33,3.58,10.43,5.86,3.09,2.28,5.56,5.08,7.38,8.37,1.83,3.3,2.74,7.44,2.74,12.41,0,5.28-1.37,10.07-4.11,14.39-2.74,4.32-6.65,7.74-11.72,10.28-5.08,2.54-11.11,3.81-18.12,3.81Z"/>
    <path class="cls-6" d="M531.9,268.16v-108.4h12.48v29.54l-.46,15.22c3.55-3.35,7.28-6.22,11.19-8.6,3.91-2.38,8.4-3.58,13.47-3.58,7.81,0,13.52,2.46,17.13,7.38,3.6,4.92,5.41,12.1,5.41,21.54v46.89h-12.48v-45.22c0-6.9-1.12-11.93-3.35-15.07-2.23-3.14-5.79-4.72-10.66-4.72-3.76,0-7.13.97-10.12,2.89-2.99,1.93-6.37,4.77-10.12,8.53v53.59h-12.48Z"/>
    <path class="cls-6" d="M631.77,269.99c-6.19,0-11.34-1.85-15.45-5.56-4.11-3.7-6.17-8.85-6.17-15.45,0-8.12,3.63-14.34,10.89-18.65,7.26-4.31,18.75-7.33,34.48-9.06,0-3.15-.43-6.14-1.29-8.98-.86-2.84-2.39-5.15-4.57-6.93-2.18-1.77-5.3-2.66-9.36-2.66-4.26,0-8.27.81-12.03,2.44-3.76,1.62-7.11,3.45-10.05,5.48l-4.87-8.68c3.45-2.23,7.69-4.39,12.71-6.47,5.02-2.08,10.48-3.12,16.37-3.12,9.03,0,15.58,2.77,19.64,8.3,4.06,5.53,6.09,12.92,6.09,22.15v45.37h-10.35l-1.07-8.83h-.46c-3.45,2.84-7.23,5.33-11.34,7.46-4.11,2.13-8.5,3.2-13.17,3.2ZM635.42,259.94c3.55,0,6.9-.86,10.05-2.59,3.14-1.72,6.49-4.16,10.05-7.31v-20.55c-12.28,1.52-20.88,3.81-25.81,6.85-4.92,3.04-7.38,6.95-7.38,11.72,0,4.16,1.27,7.18,3.81,9.06,2.54,1.88,5.63,2.82,9.29,2.82Z"/>
    <path class="cls-6" d="M691.45,268.16v-73.99h10.35l1.07,13.4h.46c2.54-4.67,5.63-8.37,9.29-11.11,3.65-2.74,7.56-4.11,11.72-4.11,2.94,0,5.58.51,7.92,1.52l-2.44,10.96c-1.22-.4-2.34-.71-3.35-.91-1.02-.2-2.28-.3-3.81-.3-3.15,0-6.42,1.27-9.82,3.81-3.4,2.54-6.37,6.95-8.91,13.25v47.5h-12.48Z"/>
    <path class="cls-6" d="M772.75,269.99c-6.6,0-12.59-1.55-17.96-4.64-5.38-3.09-9.64-7.54-12.79-13.32-3.15-5.78-4.72-12.69-4.72-20.71s1.6-15.07,4.8-20.86c3.2-5.79,7.33-10.25,12.41-13.4,5.07-3.14,10.4-4.72,15.99-4.72,9.44,0,16.72,3.15,21.85,9.44,5.12,6.29,7.69,14.72,7.69,25.27,0,1.32-.03,2.61-.08,3.88-.05,1.27-.18,2.36-.38,3.27h-49.94c.51,7.82,2.97,14.06,7.38,18.73,4.42,4.67,10.17,7,17.28,7,3.55,0,6.82-.53,9.82-1.6,2.99-1.07,5.86-2.46,8.6-4.19l4.42,8.22c-3.15,2.03-6.73,3.81-10.73,5.33-4.01,1.52-8.55,2.28-13.63,2.28ZM749.45,225.23h39.58c0-7.51-1.6-13.22-4.8-17.13-3.2-3.91-7.69-5.86-13.47-5.86-5.18,0-9.82,2.01-13.93,6.01-4.11,4.01-6.57,9.67-7.38,16.98Z"/>
  </g>
  <g>
    <path class="cls-6" d="M447.89,135.62v-52.27h31.49v7.83h-22.22v13.35h18.78v7.83h-18.78v15.43h23.02v7.83h-32.29Z"/>
    <path class="cls-6" d="M503.04,136.58c-4.9,0-8.82-1.81-11.75-5.43-2.93-3.62-4.4-8.66-4.4-15.11,0-4.26.79-7.94,2.36-11.03,1.57-3.09,3.64-5.46,6.19-7.11,2.56-1.65,5.25-2.48,8.07-2.48,2.24,0,4.14.39,5.71,1.16,1.57.77,3.1,1.83,4.6,3.16l-.32-6.31v-14.23h9.19v56.43h-7.59l-.64-4.24h-.32c-1.44,1.44-3.12,2.67-5.04,3.68-1.92,1.01-3.94,1.52-6.07,1.52ZM505.28,128.99c2.93,0,5.68-1.47,8.23-4.4v-18.3c-1.33-1.23-2.67-2.08-4-2.56-1.33-.48-2.67-.72-4-.72-2.51,0-4.65,1.13-6.43,3.4-1.79,2.27-2.68,5.45-2.68,9.55s.77,7.43,2.32,9.67c1.55,2.24,3.73,3.36,6.55,3.36Z"/>
    <path class="cls-6" d="M539.01,89.5c-1.65,0-2.98-.48-4-1.44-1.01-.96-1.52-2.24-1.52-3.84s.51-2.8,1.52-3.76c1.01-.96,2.34-1.44,4-1.44s2.98.48,4,1.44c1.01.96,1.52,2.21,1.52,3.76s-.51,2.88-1.52,3.84c-1.01.96-2.35,1.44-4,1.44ZM534.37,135.62v-39.25h9.19v39.25h-9.19Z"/>
    <path class="cls-6" d="M555.31,135.62v-39.25h7.59l.64,5.28h.32c1.76-1.7,3.68-3.17,5.75-4.4,2.08-1.22,4.45-1.84,7.11-1.84,4.21,0,7.27,1.36,9.19,4.08,1.92,2.72,2.88,6.55,2.88,11.51v24.62h-9.19v-23.42c0-3.25-.48-5.54-1.44-6.87-.96-1.33-2.53-2-4.72-2-1.71,0-3.21.41-4.52,1.24-1.31.83-2.79,2.04-4.44,3.64v27.42h-9.19Z"/>
    <path class="cls-6" d="M619.1,136.58c-3.73,0-7.3-1.7-10.71-5.12h-.24l-.8,4.16h-7.27v-56.43h9.19v14.55l-.24,6.55c1.65-1.44,3.46-2.61,5.43-3.52,1.97-.91,3.94-1.36,5.91-1.36,4.9,0,8.71,1.81,11.43,5.44,2.72,3.62,4.08,8.45,4.08,14.47,0,4.48-.8,8.3-2.4,11.47-1.6,3.17-3.66,5.6-6.19,7.27-2.53,1.68-5.26,2.52-8.19,2.52ZM617.18,128.99c2.61,0,4.8-1.15,6.55-3.44,1.76-2.29,2.64-5.65,2.64-10.07,0-3.94-.67-7.01-2-9.19-1.33-2.18-3.49-3.28-6.47-3.28-2.77,0-5.65,1.47-8.63,4.4v18.3c1.39,1.17,2.76,2.01,4.12,2.52,1.36.51,2.62.76,3.8.76Z"/>
    <path class="cls-6" d="M656.74,136.58c-4.21,0-7.27-1.36-9.19-4.08-1.92-2.72-2.88-6.55-2.88-11.51v-24.62h9.19v23.42c0,3.25.48,5.54,1.44,6.87.96,1.33,2.5,2,4.64,2,1.7,0,3.21-.43,4.52-1.28,1.31-.85,2.7-2.24,4.2-4.16v-26.86h9.19v39.25h-7.51l-.72-5.76h-.24c-1.71,2.03-3.57,3.65-5.59,4.88-2.03,1.22-4.37,1.84-7.03,1.84Z"/>
    <path class="cls-6" d="M689.51,135.62v-39.25h7.59l.64,6.95h.32c1.39-2.56,3.06-4.52,5.04-5.87,1.97-1.36,4-2.04,6.07-2.04,1.86,0,3.36.27,4.48.8l-1.6,7.99c-.69-.21-1.33-.37-1.92-.48-.59-.11-1.31-.16-2.16-.16-1.55,0-3.17.6-4.88,1.8-1.71,1.2-3.17,3.29-4.4,6.27v23.98h-9.19Z"/>
    <path class="cls-6" d="M732.19,152.97c-3.09,0-5.87-.37-8.35-1.12-2.48-.75-4.42-1.88-5.83-3.4-1.41-1.52-2.12-3.42-2.12-5.71,0-3.25,1.86-6.05,5.6-8.39v-.32c-1.01-.64-1.85-1.49-2.52-2.56-.67-1.07-1-2.4-1-4s.44-2.94,1.32-4.2c.88-1.25,1.88-2.28,3-3.08v-.32c-1.33-1.01-2.52-2.42-3.56-4.24-1.04-1.81-1.56-3.86-1.56-6.15,0-3.04.72-5.6,2.16-7.67,1.44-2.08,3.34-3.66,5.71-4.76,2.37-1.09,4.92-1.64,7.63-1.64,1.07,0,2.09.09,3.08.28.98.19,1.88.41,2.68.68h14.07v6.79h-7.19c.64.75,1.17,1.69,1.6,2.84.43,1.15.64,2.41.64,3.8,0,2.88-.67,5.32-2,7.31-1.33,2-3.12,3.5-5.35,4.52-2.24,1.01-4.74,1.52-7.51,1.52-.85,0-1.73-.08-2.64-.24-.91-.16-1.81-.43-2.72-.8-.59.53-1.05,1.07-1.4,1.6-.35.53-.52,1.25-.52,2.16,0,1.12.47,2,1.4,2.64.93.64,2.6.96,5,.96h6.95c4.74,0,8.33.76,10.75,2.28,2.42,1.52,3.64,3.98,3.64,7.39,0,2.56-.85,4.89-2.56,6.99-1.71,2.1-4.13,3.77-7.27,5-3.14,1.22-6.85,1.84-11.11,1.84ZM733.63,146.97c3.14,0,5.7-.64,7.67-1.92,1.97-1.28,2.96-2.74,2.96-4.4,0-1.55-.6-2.59-1.8-3.12-1.2-.53-2.92-.8-5.16-.8h-5.36c-2.13,0-3.92-.19-5.36-.56-2.03,1.55-3.04,3.28-3.04,5.2,0,1.76.91,3.13,2.72,4.12,1.81.99,4.26,1.48,7.35,1.48ZM732.67,117.4c1.86,0,3.46-.69,4.8-2.08,1.33-1.39,2-3.33,2-5.83s-.65-4.36-1.96-5.71c-1.31-1.36-2.92-2.04-4.84-2.04s-3.54.67-4.88,2c-1.33,1.33-2,3.25-2,5.76s.67,4.45,2,5.83c1.33,1.39,2.96,2.08,4.88,2.08Z"/>
    <path class="cls-6" d="M760.09,135.62v-56.43h9.19v14.55l-.32,7.59c1.65-1.55,3.49-2.92,5.51-4.12,2.02-1.2,4.37-1.8,7.03-1.8,4.21,0,7.27,1.36,9.19,4.08,1.92,2.72,2.88,6.55,2.88,11.51v24.62h-9.19v-23.42c0-3.25-.48-5.54-1.44-6.87-.96-1.33-2.53-2-4.72-2-1.71,0-3.21.41-4.52,1.24-1.31.83-2.79,2.04-4.44,3.64v27.42h-9.19Z"/>
  </g>
  <path class="cls-7" d="M244.94,113.39c-7.7,0-13.97-6.27-13.97-13.97s6.27-13.97,13.97-13.97,13.97,6.27,13.97,13.97-6.27,13.97-13.97,13.97ZM244.94,90.53c-4.9,0-8.89,3.99-8.89,8.89s3.99,8.89,8.89,8.89,8.89-3.99,8.89-8.89-3.99-8.89-8.89-8.89Z"/>
  <path class="cls-1" d="M217.13,97.03c-7.7,0-13.97-6.27-13.97-13.97s6.27-13.97,13.97-13.97,13.97,6.27,13.97,13.97-6.27,13.97-13.97,13.97ZM217.13,74.18c-4.9,0-8.89,3.99-8.89,8.89s3.99,8.89,8.89,8.89,8.89-3.99,8.89-8.89-3.99-8.89-8.89-8.89Z"/>
  <path class="cls-3" d="M185.37,42.56c-11.73,0-21.28-9.55-21.28-21.28S173.64,0,185.37,0s21.28,9.55,21.28,21.28-9.55,21.28-21.28,21.28ZM185.37,5.07c-8.94,0-16.21,7.27-16.21,16.21s7.27,16.21,16.21,16.21,16.21-7.27,16.21-16.21-7.27-16.21-16.21-16.21Z"/>
  <path class="cls-3" d="M184.68,94.14c-7.7,0-13.97-6.27-13.97-13.97s6.27-13.97,13.97-13.97,13.97,6.27,13.97,13.97-6.27,13.97-13.97,13.97ZM184.68,71.28c-4.9,0-8.89,3.99-8.89,8.89s3.99,8.89,8.89,8.89,8.89-3.99,8.89-8.89-3.99-8.89-8.89-8.89Z"/>
  <path class="cls-1" d="M233.46,51.38c-11.73,0-21.28-9.55-21.28-21.28s9.55-21.28,21.28-21.28,21.28,9.55,21.28,21.28-9.55,21.28-21.28,21.28ZM233.46,13.89c-8.94,0-16.21,7.27-16.21,16.21s7.27,16.21,16.21,16.21,16.21-7.27,16.21-16.21-7.27-16.21-16.21-16.21Z"/>
  <path class="cls-2" d="M278.38,74.38c-11.73,0-21.28-9.55-21.28-21.28s9.55-21.28,21.28-21.28,21.28,9.55,21.28,21.28-9.55,21.28-21.28,21.28ZM278.38,36.89c-8.94,0-16.21,7.27-16.21,16.21s7.27,16.21,16.21,16.21,16.21-7.27,16.21-16.21-7.27-16.21-16.21-16.21Z"/>
  <path class="cls-4" d="M313.24,110.11c-11.73,0-21.28-9.55-21.28-21.28s9.55-21.28,21.28-21.28,21.28,9.55,21.28,21.28-9.55,21.28-21.28,21.28ZM313.24,72.62c-8.94,0-16.21,7.27-16.21,16.21s7.27,16.21,16.21,16.21,16.21-7.27,16.21-16.21-7.27-16.21-16.21-16.21Z"/>
  <path class="cls-1" d="M334.06,151.87c-11.73,0-21.28-9.55-21.28-21.28s9.55-21.28,21.28-21.28,21.28,9.55,21.28,21.28-9.55,21.28-21.28,21.28ZM334.06,114.38c-8.94,0-16.21,7.27-16.21,16.21s7.27,16.21,16.21,16.21,16.21-7.27,16.21-16.21-7.27-16.21-16.21-16.21Z"/>
  <path class="cls-4" d="M266.18,136.42c-7.7,0-13.97-6.27-13.97-13.97s6.27-13.97,13.97-13.97,13.97,6.27,13.97,13.97-6.27,13.97-13.97,13.97ZM266.18,113.56c-4.9,0-8.89,3.99-8.89,8.89s3.99,8.89,8.89,8.89,8.89-3.99,8.89-8.89-3.99-8.89-8.89-8.89Z"/>
  <path class="cls-8" d="M132.86,51.38c-11.73,0-21.28-9.55-21.28-21.28s9.55-21.28,21.28-21.28,21.28,9.55,21.28,21.28-9.55,21.28-21.28,21.28ZM132.86,13.89c-8.94,0-16.21,7.27-16.21,16.21s7.27,16.21,16.21,16.21,16.21-7.27,16.21-16.21-7.27-16.21-16.21-16.21Z"/>
  <path class="cls-8" d="M152.24,98.59c-7.7,0-13.97-6.27-13.97-13.97s6.27-13.97,13.97-13.97,13.97,6.27,13.97,13.97-6.27,13.97-13.97,13.97ZM152.24,75.73c-4.9,0-8.89,3.99-8.89,8.89s3.99,8.89,8.89,8.89,8.89-3.99,8.89-8.89-3.99-8.89-8.89-8.89Z"/>
  <path class="cls-5" d="M123.48,112.44c-7.7,0-13.97-6.27-13.97-13.97s6.27-13.97,13.97-13.97,13.97,6.27,13.97,13.97-6.27,13.97-13.97,13.97ZM123.48,89.58c-4.9,0-8.89,3.99-8.89,8.89s3.99,8.89,8.89,8.89,8.89-3.99,8.89-8.89-3.99-8.89-8.89-8.89Z"/>
  <path class="cls-4" d="M100.12,135.76c-7.7,0-13.97-6.27-13.97-13.97s6.27-13.97,13.97-13.97,13.97,6.27,13.97,13.97-6.27,13.97-13.97,13.97ZM100.12,112.9c-4.9,0-8.89,3.99-8.89,8.89s3.99,8.89,8.89,8.89,8.89-3.99,8.89-8.89-3.99-8.89-8.89-8.89Z"/>
  <path class="cls-5" d="M85.09,164.91c-1.39,0-2.8-.21-4.19-.65h0c-7.35-2.31-11.44-10.17-9.12-17.52,1.12-3.56,3.56-6.47,6.87-8.19,3.31-1.72,7.09-2.06,10.65-.93,3.56,1.12,6.47,3.56,8.19,6.87,1.72,3.31,2.05,7.09.93,10.65-1.88,5.95-7.39,9.77-13.33,9.77ZM82.43,159.42c4.67,1.47,9.68-1.13,11.15-5.81.71-2.27.5-4.67-.59-6.78s-2.95-3.66-5.21-4.37c-2.27-.71-4.67-.5-6.78.59-2.11,1.1-3.66,2.95-4.37,5.21-1.47,4.68,1.13,9.68,5.81,11.15h0Z"/>
  <path class="cls-8" d="M81.09,196.92c-1.41,0-2.83-.22-4.21-.65-3.56-1.12-6.47-3.56-8.19-6.87-1.72-3.31-2.06-7.09-.93-10.65,2.32-7.35,10.17-11.44,17.52-9.12,3.56,1.12,6.47,3.56,8.19,6.87,1.72,3.31,2.05,7.09.93,10.65-1.12,3.56-3.56,6.47-6.87,8.19-2.02,1.05-4.22,1.59-6.44,1.59ZM81.08,174.05c-3.78,0-7.29,2.43-8.49,6.22-.71,2.26-.5,4.67.59,6.78,1.1,2.11,2.95,3.66,5.21,4.37,2.26.71,4.67.5,6.78-.59s3.66-2.95,4.37-5.21c.71-2.27.5-4.67-.59-6.78-1.1-2.11-2.95-3.66-5.21-4.37-.89-.28-1.78-.41-2.67-.41Z"/>
  <path class="cls-4" d="M85.01,228.9c-1.41,0-2.83-.22-4.21-.65-3.56-1.12-6.47-3.56-8.19-6.87-1.72-3.31-2.05-7.09-.93-10.65,1.12-3.56,3.56-6.47,6.87-8.19,3.31-1.72,7.09-2.06,10.65-.93,3.56,1.12,6.47,3.56,8.19,6.87,1.72,3.31,2.06,7.09.93,10.65-1.12,3.56-3.56,6.47-6.87,8.19-2.02,1.05-4.22,1.59-6.44,1.59ZM84.98,206.03c-1.41,0-2.81.34-4.1,1.01-2.11,1.1-3.66,2.95-4.37,5.21-.71,2.27-.5,4.67.59,6.78,1.1,2.11,2.95,3.66,5.21,4.37,2.27.71,4.67.5,6.78-.59,2.11-1.1,3.66-2.95,4.37-5.21.71-2.27.5-4.67-.59-6.78-1.1-2.11-2.95-3.66-5.21-4.37-.88-.28-1.78-.42-2.68-.42Z"/>
  <path class="cls-7" d="M100.4,255.12c-1.39,0-2.8-.21-4.19-.65-3.56-1.12-6.47-3.56-8.19-6.87-1.72-3.31-2.05-7.09-.93-10.65,2.31-7.34,10.17-11.44,17.52-9.12,3.56,1.12,6.47,3.56,8.19,6.87,1.72,3.31,2.06,7.09.93,10.65-1.88,5.95-7.4,9.77-13.33,9.77ZM100.42,232.26c-3.78,0-7.29,2.43-8.49,6.22-.71,2.27-.5,4.67.59,6.78,1.1,2.11,2.95,3.66,5.21,4.37,4.68,1.48,9.68-1.13,11.15-5.81.71-2.27.5-4.67-.59-6.78-1.1-2.11-2.95-3.66-5.21-4.37-.89-.28-1.78-.41-2.67-.41Z"/>
  <path class="cls-7" d="M88.13,335.92c-2.15,0-4.31-.33-6.42-.99-11.19-3.53-17.43-15.5-13.9-26.69,1.71-5.42,5.43-9.85,10.47-12.48,5.04-2.63,10.8-3.13,16.23-1.42,5.42,1.71,9.85,5.43,12.48,10.47s3.13,10.8,1.42,16.23-5.43,9.85-10.47,12.48c-3.08,1.6-6.43,2.42-9.8,2.42ZM88.09,298.42c-2.57,0-5.12.62-7.47,1.84-3.84,2-6.67,5.37-7.97,9.5-2.68,8.52,2.06,17.64,10.59,20.33h0c4.13,1.3,8.52.92,12.36-1.08,3.84-2,6.67-5.37,7.97-9.5,1.3-4.13.92-8.52-1.08-12.36-2-3.84-5.37-6.67-9.5-7.97-1.61-.51-3.25-.76-4.89-.76Z"/>
  <path class="cls-2" d="M53.46,299.14c-2.11,0-4.26-.32-6.38-.98h0c-5.42-1.71-9.85-5.43-12.48-10.47-2.63-5.04-3.13-10.8-1.42-16.23,3.53-11.19,15.5-17.43,26.69-13.9,11.19,3.53,17.43,15.5,13.9,26.69-2.86,9.07-11.27,14.89-20.31,14.89ZM48.6,293.32c8.52,2.69,17.64-2.06,20.33-10.59,2.69-8.52-2.06-17.64-10.59-20.33-8.52-2.69-17.64,2.06-20.33,10.59-1.3,4.13-.92,8.52,1.08,12.36s5.37,6.67,9.5,7.97h0Z"/>
  <path class="cls-4" d="M29.49,254.26c-2.15,0-4.31-.33-6.42-.99-5.42-1.71-9.85-5.43-12.48-10.47-2.63-5.04-3.13-10.8-1.42-16.23,1.71-5.42,5.43-9.85,10.47-12.48,5.04-2.63,10.8-3.13,16.23-1.42,5.42,1.71,9.85,5.43,12.48,10.47,2.63,5.04,3.13,10.8,1.42,16.23-1.71,5.42-5.43,9.85-10.47,12.48-3.08,1.6-6.43,2.42-9.8,2.42ZM29.44,216.75c-2.57,0-5.12.62-7.47,1.84-3.84,2-6.67,5.37-7.97,9.5-1.3,4.13-.92,8.52,1.08,12.36s5.37,6.67,9.5,7.97h0c4.13,1.3,8.52.92,12.36-1.08,3.84-2,6.67-5.37,7.97-9.5,1.3-4.13.92-8.52-1.08-12.36s-5.37-6.67-9.5-7.97c-1.61-.51-3.25-.76-4.89-.76Z"/>
  <path class="cls-8" d="M21.28,203.88c-2.11,0-4.26-.32-6.38-.98h0c-5.42-1.71-9.85-5.43-12.48-10.47s-3.13-10.8-1.42-16.23c3.53-11.19,15.5-17.43,26.69-13.9,5.42,1.71,9.85,5.42,12.48,10.47s3.13,10.8,1.42,16.23c-2.86,9.07-11.27,14.89-20.31,14.89ZM16.42,198.06c8.52,2.69,17.64-2.06,20.33-10.59,1.3-4.13.92-8.52-1.08-12.36-2-3.84-5.37-6.67-9.5-7.97-8.52-2.69-17.64,2.06-20.33,10.59-1.3,4.13-.92,8.52,1.08,12.36s5.37,6.67,9.5,7.97h0Z"/>
  <path class="cls-5" d="M29.61,153.68c-2.11,0-4.26-.32-6.38-.99h0c-5.42-1.71-9.85-5.43-12.48-10.47s-3.13-10.8-1.42-16.23c1.71-5.42,5.43-9.85,10.47-12.48,5.04-2.63,10.8-3.13,16.23-1.42,5.42,1.71,9.85,5.43,12.48,10.47,2.63,5.04,3.13,10.8,1.42,16.23-2.86,9.07-11.27,14.89-20.31,14.89ZM24.75,147.86c4.13,1.3,8.52.92,12.36-1.08,3.84-2,6.67-5.37,7.97-9.5,1.3-4.13.92-8.52-1.08-12.36-2-3.84-5.37-6.67-9.5-7.97-8.52-2.68-17.64,2.06-20.33,10.59-1.3,4.13-.92,8.52,1.08,12.36,2,3.84,5.37,6.67,9.5,7.97h0Z"/>
  <path class="cls-4" d="M52.41,108.41c-11.73,0-21.28-9.55-21.28-21.28s9.55-21.28,21.28-21.28,21.28,9.55,21.28,21.28-9.55,21.28-21.28,21.28ZM52.41,70.93c-8.94,0-16.21,7.27-16.21,16.21s7.27,16.21,16.21,16.21,16.21-7.27,16.21-16.21-7.27-16.21-16.21-16.21Z"/>
  <path class="cls-5" d="M87.77,74.7c-11.73,0-21.28-9.55-21.28-21.28s9.55-21.28,21.28-21.28,21.28,9.55,21.28,21.28-9.55,21.28-21.28,21.28ZM87.77,37.22c-8.94,0-16.21,7.27-16.21,16.21s7.27,16.21,16.21,16.21,16.21-7.27,16.21-16.21-7.27-16.21-16.21-16.21Z"/>
</svg>